<svg width="5" height="11" viewBox="0 0 5 11" fill="none" xmlns="http://www.w3.org/2000/svg">
<path d="M0.666863 10.1665C0.511095 10.1669 0.360138 10.1126 0.240197 10.0132C0.172691 9.95725 0.11689 9.88851 0.0759885 9.81095C0.0350872 9.73338 0.00988963 9.64851 0.00183905 9.56119C-0.00621152 9.47388 0.00304316 9.38583 0.0290728 9.30209C0.0551025 9.21836 0.0973952 9.14058 0.15353 9.07321L3.1402 5.49988L0.260197 1.91988C0.20482 1.85169 0.163465 1.77322 0.138511 1.689C0.113556 1.60477 0.105494 1.51644 0.114786 1.42909C0.124079 1.34174 0.150544 1.25708 0.19266 1.17999C0.234776 1.1029 0.291712 1.03489 0.360197 0.979879C0.429174 0.919188 0.509951 0.87341 0.597459 0.845417C0.684968 0.817424 0.777318 0.807822 0.868713 0.817212C0.960108 0.826602 1.04858 0.854781 1.12856 0.899983C1.20855 0.945184 1.27833 1.00643 1.33353 1.07988L4.55353 5.07988C4.65158 5.19917 4.70519 5.3488 4.70519 5.50321C4.70519 5.65763 4.65158 5.80726 4.55353 5.92655L1.2202 9.92655C1.15332 10.0072 1.06836 10.071 0.972223 10.1127C0.876083 10.1544 0.771467 10.1728 0.666863 10.1665Z" fill="white"/>
</svg>
