<svg width="6" height="11" viewBox="0 0 6 11" fill="none" xmlns="http://www.w3.org/2000/svg">
<path d="M4.69446 10.3235C4.85023 10.3238 5.00119 10.2696 5.12113 10.1702C5.18864 10.1142 5.24444 10.0455 5.28534 9.96793C5.32624 9.89037 5.35144 9.80549 5.35949 9.71818C5.36754 9.63086 5.35828 9.54281 5.33226 9.45907C5.30623 9.37534 5.26393 9.29756 5.2078 9.2302L2.22113 5.65686L5.10113 2.07686C5.15651 2.00867 5.19786 1.93021 5.22282 1.84598C5.24777 1.76175 5.25583 1.67343 5.24654 1.58607C5.23725 1.49872 5.21078 1.41407 5.16867 1.33698C5.12655 1.25988 5.06962 1.19188 5.00113 1.13686C4.93215 1.07617 4.85138 1.03039 4.76387 1.0024C4.67636 0.974407 4.58401 0.964804 4.49262 0.974194C4.40122 0.983584 4.31275 1.01176 4.23276 1.05697C4.15278 1.10217 4.08299 1.16341 4.0278 1.23686L0.807799 5.23686C0.709744 5.35615 0.656141 5.50578 0.656141 5.6602C0.656141 5.81461 0.709744 5.96424 0.807799 6.08353L4.14113 10.0835C4.20801 10.1642 4.29297 10.228 4.38911 10.2697C4.48525 10.3114 4.58986 10.3298 4.69446 10.3235Z" fill="#142131"/>
</svg>
