<svg width="6" height="11" viewBox="0 0 6 11" fill="none" xmlns="http://www.w3.org/2000/svg">
<path d="M1.30554 10.3235C1.14977 10.3238 0.99881 10.2696 0.878868 10.1702C0.811363 10.1142 0.755562 10.0455 0.71466 9.96793C0.673759 9.89037 0.648562 9.80549 0.640511 9.71818C0.63246 9.63086 0.641715 9.54281 0.667745 9.45907C0.693774 9.37534 0.736067 9.29756 0.792202 9.2302L3.77887 5.65686L0.898869 2.07686C0.843492 2.00867 0.802137 1.93021 0.777183 1.84598C0.752228 1.76175 0.744166 1.67343 0.753458 1.58607C0.762751 1.49872 0.789216 1.41407 0.831332 1.33698C0.873447 1.25988 0.930384 1.19188 0.998869 1.13686C1.06785 1.07617 1.14862 1.03039 1.23613 1.0024C1.32364 0.974407 1.41599 0.964804 1.50738 0.974194C1.59878 0.983584 1.68725 1.01176 1.76724 1.05697C1.84722 1.10217 1.91701 1.16341 1.9722 1.23686L5.1922 5.23686C5.29026 5.35615 5.34386 5.50578 5.34386 5.6602C5.34386 5.81461 5.29026 5.96424 5.1922 6.08353L1.85887 10.0835C1.79199 10.1642 1.70703 10.228 1.61089 10.2697C1.51475 10.3114 1.41014 10.3298 1.30554 10.3235Z" fill="#00993E"/>
</svg>
