<svg width="12" height="11" viewBox="0 0 12 11" fill="none" xmlns="http://www.w3.org/2000/svg">
<path d="M10.3484 8.17871C10.1579 8.03706 9.88878 8.07661 9.74714 8.26699C9.66924 8.3717 9.58588 8.47442 9.49936 8.57228C9.3422 8.75007 9.3589 9.02163 9.53668 9.17881C9.61845 9.25109 9.71996 9.28658 9.82111 9.28658C9.93996 9.28658 10.0583 9.23753 10.1432 9.14147C10.2457 9.02558 10.3444 8.90394 10.4366 8.77991C10.5783 8.58953 10.5388 8.32033 10.3484 8.17871Z" fill="#00993E"/>
<path d="M11.0668 6.16354C10.8351 6.11308 10.6061 6.26014 10.5556 6.492C10.5278 6.61955 10.4943 6.74734 10.4558 6.87186C10.3857 7.09861 10.5127 7.33919 10.7395 7.40925C10.7817 7.42229 10.8244 7.4285 10.8665 7.4285C11.0499 7.4285 11.2198 7.31003 11.2769 7.12553C11.3225 6.97776 11.3624 6.8261 11.3953 6.67479C11.4458 6.44293 11.2987 6.21403 11.0668 6.16354Z" fill="#00993E"/>
<path d="M8.28076 9.55483C8.16668 9.61851 8.04855 9.67802 7.9297 9.73171C7.71342 9.82938 7.61728 10.0839 7.71494 10.3002C7.7867 10.4591 7.94309 10.5531 8.1068 10.5531C8.16592 10.5531 8.22601 10.5408 8.2834 10.5149C8.4244 10.4512 8.56444 10.3807 8.6997 10.3051C8.90692 10.1895 8.98111 9.92771 8.86539 9.72052C8.74974 9.51334 8.48797 9.43916 8.28076 9.55483Z" fill="#00993E"/>
<path d="M5.57063 2.0625V5.32202L3.99499 6.89764C3.82719 7.06546 3.82719 7.33752 3.99499 7.50531C4.0789 7.58923 4.18884 7.63116 4.29884 7.63116C4.4088 7.63116 4.51877 7.58921 4.60269 7.50531L6.30417 5.80383C6.38474 5.72327 6.43 5.61395 6.43 5.5V2.0625C6.43 1.82518 6.23763 1.63281 6.00032 1.63281C5.763 1.63281 5.57063 1.82518 5.57063 2.0625Z" fill="#00993E"/>
<path d="M11.0703 0.923828C10.833 0.923828 10.6406 1.1162 10.6406 1.35352V2.54667C9.64048 0.978141 7.89387 0 6 0C4.5309 0 3.14973 0.572107 2.1109 1.6109C1.07211 2.64973 0.5 4.0309 0.5 5.5C0.5 6.9691 1.07211 8.35027 2.1109 9.3891C3.14973 10.4279 4.5309 11 6 11C6.00363 11 6.00713 10.9995 6.01074 10.9995C6.01435 10.9995 6.01785 11 6.02148 11C6.17634 11 6.33273 10.9935 6.48634 10.9806C6.72282 10.9608 6.89848 10.7531 6.87869 10.5166C6.85886 10.2801 6.65138 10.1044 6.41463 10.1243C6.28478 10.1351 6.15252 10.1406 6.02148 10.1406C6.01785 10.1406 6.01435 10.1411 6.01074 10.1412C6.00713 10.1411 6.00363 10.1406 6 10.1406C3.44115 10.1406 1.35938 8.05885 1.35938 5.5C1.35938 2.94115 3.44115 0.859375 6 0.859375C7.6491 0.859375 9.16587 1.73837 9.99472 3.13672H8.81323C8.57591 3.13672 8.38354 3.32909 8.38354 3.56641C8.38354 3.80372 8.57591 3.99609 8.81323 3.99609H10.125C10.3867 3.99609 10.6315 3.92255 10.8399 3.79515C10.8533 3.7875 10.8662 3.77927 10.8785 3.7704C11.2525 3.52438 11.5 3.10121 11.5 2.62109V1.35352C11.5 1.1162 11.3076 0.923828 11.0703 0.923828Z" fill="#00993E"/>
</svg>
