<svg width="12" height="11" viewBox="0 0 12 11" fill="none" xmlns="http://www.w3.org/2000/svg">
<path d="M2.53552 6.36333C2.34609 6.47569 2.21875 6.6822 2.21875 6.91797C2.21875 7.27336 2.50789 7.5625 2.86328 7.5625C3.14335 7.5625 3.38217 7.38287 3.47086 7.13281H5.14062C5.49602 7.13281 5.78516 7.42195 5.78516 7.77734C5.78516 8.13274 5.49602 8.42188 5.14062 8.42188H2.5625C1.97018 8.42188 1.48828 8.90377 1.48828 9.49609C1.48828 10.0884 1.97018 10.5703 2.5625 10.5703H4.71094C4.8296 10.5703 4.92578 10.4741 4.92578 10.3555C4.92578 10.2368 4.8296 10.1406 4.71094 10.1406H2.5625C2.20711 10.1406 1.91797 9.85149 1.91797 9.49609C1.91797 9.1407 2.20711 8.85156 2.5625 8.85156H5.14062C5.73295 8.85156 6.21484 8.36967 6.21484 7.77734C6.21484 7.18502 5.73295 6.70312 5.14062 6.70312H3.47086C3.42005 6.55987 3.31997 6.43979 3.19105 6.36333L4.83198 3.67099C5.09012 3.28298 5.22656 2.83087 5.22656 2.36328C5.22656 1.06017 4.16639 0 2.86328 0C1.56017 0 0.5 1.06017 0.5 2.36328C0.5 2.83087 0.636447 3.28298 0.894582 3.67099L2.53552 6.36333ZM2.86328 7.13281C2.74482 7.13281 2.64844 7.03643 2.64844 6.91797C2.64844 6.7995 2.74482 6.70312 2.86328 6.70312C2.98175 6.70312 3.07812 6.7995 3.07812 6.91797C3.07812 7.03643 2.98175 7.13281 2.86328 7.13281ZM2.86328 0.429688C3.92946 0.429688 4.79688 1.2971 4.79688 2.36328C4.79688 2.74716 4.68458 3.11813 4.47214 3.4361C4.47048 3.43857 4.46887 3.44109 4.46733 3.44364L2.86328 6.07546C2.86328 6.07546 1.25608 3.43857 1.25442 3.4361C1.04199 3.11813 0.929688 2.74716 0.929688 2.36328C0.929688 1.2971 1.7971 0.429688 2.86328 0.429688Z" fill="#00993E"/>
<path d="M2.86328 3.4375C3.45561 3.4375 3.9375 2.95561 3.9375 2.36328C3.9375 1.77096 3.45561 1.28906 2.86328 1.28906C2.27096 1.28906 1.78906 1.77096 1.78906 2.36328C1.78906 2.95561 2.27096 3.4375 2.86328 3.4375ZM2.86328 1.71875C3.21868 1.71875 3.50781 2.00789 3.50781 2.36328C3.50781 2.71868 3.21868 3.00781 2.86328 3.00781C2.50789 3.00781 2.21875 2.71868 2.21875 2.36328C2.21875 2.00789 2.50789 1.71875 2.86328 1.71875Z" fill="#00993E"/>
<path d="M9.13672 3.56641C7.83361 3.56641 6.77344 4.62657 6.77344 5.92969C6.77344 6.39803 6.91031 6.85083 7.16927 7.23925L8.80408 9.80362C8.67749 9.88021 8.57933 9.99915 8.52916 10.1406H6.64453C6.52587 10.1406 6.42969 10.2368 6.42969 10.3555C6.42969 10.4741 6.52587 10.5703 6.64453 10.5703H8.52914C8.61783 10.8204 8.85663 11 9.13672 11C9.49211 11 9.78125 10.7109 9.78125 10.3555C9.78125 10.1217 9.65615 9.91663 9.46938 9.80362L11.1042 7.23925C11.3631 6.85083 11.5 6.39803 11.5 5.92969C11.5 4.62657 10.4398 3.56641 9.13672 3.56641ZM9.13672 10.5703C9.01825 10.5703 8.92188 10.4739 8.92188 10.3555C8.92188 10.237 9.01825 10.1406 9.13672 10.1406C9.25518 10.1406 9.35156 10.237 9.35156 10.3555C9.35156 10.4739 9.25518 10.5703 9.13672 10.5703ZM10.7456 7.00251C10.7447 7.0038 9.13672 9.52611 9.13672 9.52611C9.13672 9.52611 7.5287 7.00378 7.52786 7.00251C7.31542 6.68454 7.20312 6.31357 7.20312 5.92969C7.20312 4.8635 8.07054 3.99609 9.13672 3.99609C10.2029 3.99609 11.0703 4.8635 11.0703 5.92969C11.0703 6.31357 10.958 6.68454 10.7456 7.00251Z" fill="#00993E"/>
<path d="M9.13672 4.85547C8.54439 4.85547 8.0625 5.33736 8.0625 5.92969C8.0625 6.52201 8.54439 7.00391 9.13672 7.00391C9.72904 7.00391 10.2109 6.52201 10.2109 5.92969C10.2109 5.33736 9.72904 4.85547 9.13672 4.85547ZM9.13672 6.57422C8.78132 6.57422 8.49219 6.28508 8.49219 5.92969C8.49219 5.57429 8.78132 5.28516 9.13672 5.28516C9.49211 5.28516 9.78125 5.57429 9.78125 5.92969C9.78125 6.28508 9.49211 6.57422 9.13672 6.57422Z" fill="#00993E"/>
<path d="M5.67773 10.5703C5.79639 10.5703 5.89258 10.4741 5.89258 10.3555C5.89258 10.2368 5.79639 10.1406 5.67773 10.1406C5.55908 10.1406 5.46289 10.2368 5.46289 10.3555C5.46289 10.4741 5.55908 10.5703 5.67773 10.5703Z" fill="#00993E"/>
</svg>
