<svg width="8" height="12" viewBox="0 0 8 12" fill="none" xmlns="http://www.w3.org/2000/svg">
<path d="M4.75033 5.91667C6.31263 5.91667 7.58366 4.64563 7.58366 3.08333C7.58366 1.52103 6.31263 0.25 4.75033 0.25C4.74423 0.25 4.73816 0.2501 4.73213 0.250333H2.41766C2.41743 0.250333 2.41723 0.2503 2.41703 0.2503C2.14089 0.2503 1.91703 0.474167 1.91703 0.7503V0.750333V5.41667V6.91667H1.41699C1.14086 6.91667 0.916992 7.14053 0.916992 7.41667C0.916992 7.6928 1.14086 7.91667 1.41699 7.91667H1.91699V10.75C1.91699 11.0261 2.14086 11.25 2.41699 11.25C2.69313 11.25 2.91699 11.0261 2.91699 10.75V7.91667H4.75033C5.02646 7.91667 5.25033 7.6928 5.25033 7.41667C5.25033 7.14053 5.02646 6.91667 4.75033 6.91667H2.91699V5.91667H4.75033ZM4.75033 1.25033C4.75573 1.25033 4.76113 1.25023 4.76646 1.25007C5.76999 1.25873 6.58366 2.0778 6.58366 3.08333C6.58366 4.09423 5.76123 4.91667 4.75033 4.91667H2.91699V1.25033H4.75033Z" fill="#00993E"/>
</svg>
