<svg width="13" height="13" viewBox="0 0 13 13" fill="none" xmlns="http://www.w3.org/2000/svg">
<g clip-path="url(#clip0_108_8667)">
<path d="M12.8711 9.46192C12.8555 9.42831 12.8409 9.40044 12.8274 9.3781C12.604 8.97567 12.177 8.48171 11.5467 7.89608L11.5334 7.88267L11.5267 7.87609L11.52 7.86935H11.5132C11.2271 7.59666 11.046 7.4133 10.9701 7.31943C10.8313 7.1406 10.8002 6.95959 10.8761 6.77619C10.9297 6.63762 11.131 6.34499 11.4796 5.89788C11.6629 5.66093 11.8082 5.47102 11.9154 5.32794C12.6888 4.29972 13.0241 3.64267 12.9213 3.35654L12.8813 3.28968C12.8545 3.24942 12.7852 3.21259 12.6735 3.17901C12.5617 3.14549 12.4186 3.13995 12.2443 3.16229L10.3131 3.17563C10.2819 3.16454 10.2372 3.16558 10.179 3.17901C10.1209 3.19244 10.0918 3.19918 10.0918 3.19918L10.0582 3.21598L10.0315 3.23615C10.0091 3.24949 9.98455 3.27295 9.95771 3.30649C9.931 3.33991 9.90867 3.37913 9.89082 3.42383C9.68057 3.96474 9.44153 4.46765 9.17325 4.93253C9.00783 5.20974 8.85593 5.44998 8.71719 5.65339C8.57865 5.85673 8.46242 6.00655 8.36861 6.10259C8.27467 6.19871 8.18988 6.27573 8.11374 6.3339C8.03772 6.3921 7.97968 6.41669 7.9395 6.40769C7.89922 6.3987 7.86129 6.38977 7.82538 6.38085C7.76284 6.34059 7.71253 6.28585 7.6746 6.21656C7.6365 6.14728 7.61086 6.06008 7.59745 5.95502C7.58411 5.8499 7.57622 5.75948 7.57396 5.68345C7.57187 5.60752 7.57283 5.50012 7.57737 5.36155C7.58202 5.22291 7.58411 5.12911 7.58411 5.07993C7.58411 4.91003 7.58742 4.72564 7.59407 4.52671C7.60083 4.32779 7.6063 4.17017 7.61088 4.05406C7.61544 3.93782 7.61755 3.81485 7.61755 3.68521C7.61755 3.55556 7.60966 3.45389 7.59407 3.3801C7.57866 3.3064 7.55501 3.23486 7.52384 3.1655C7.49249 3.09622 7.4466 3.04263 7.38638 3.00458C7.32604 2.96658 7.25103 2.93642 7.16176 2.91402C6.92481 2.8604 6.62308 2.83139 6.25644 2.82688C5.42501 2.81796 4.89077 2.87165 4.65384 2.98788C4.55997 3.03699 4.47502 3.10409 4.39906 3.18897C4.31858 3.28735 4.30735 3.34104 4.36545 3.34987C4.63371 3.39006 4.82362 3.48618 4.93539 3.63816L4.97567 3.7187C5.007 3.7768 5.03828 3.87967 5.06959 4.02716C5.10085 4.17466 5.12103 4.33781 5.1299 4.51654C5.15222 4.84293 5.15222 5.12232 5.1299 5.35474C5.10752 5.58725 5.08638 5.76826 5.06621 5.8979C5.04603 6.02755 5.01588 6.1326 4.97567 6.21304C4.93539 6.2935 4.90859 6.34268 4.89516 6.36053C4.88175 6.37838 4.87057 6.38963 4.86169 6.39405C4.80359 6.41631 4.74316 6.42766 4.68061 6.42766C4.61798 6.42766 4.54202 6.39633 4.45263 6.33371C4.36327 6.2711 4.27052 6.18509 4.1744 6.07555C4.07827 5.96599 3.96986 5.81288 3.84911 5.61621C3.72846 5.41954 3.60328 5.1871 3.47364 4.91888L3.36638 4.72437C3.29933 4.59924 3.20773 4.41703 3.0915 4.17792C2.97519 3.93871 2.8724 3.70733 2.78303 3.48381C2.74731 3.38994 2.69364 3.31847 2.62213 3.26929L2.58857 3.24912C2.56626 3.23127 2.53044 3.21231 2.48131 3.19211C2.4321 3.17194 2.38076 3.15747 2.32707 3.14857L0.489779 3.16191C0.302031 3.16191 0.174642 3.20444 0.107566 3.28939L0.0807214 3.32958C0.0673109 3.35196 0.0605469 3.38771 0.0605469 3.43691C0.0605469 3.48609 0.0739574 3.54645 0.100802 3.61792C0.369013 4.24829 0.660687 4.85622 0.975824 5.44183C1.29096 6.02743 1.56481 6.49915 1.7972 6.85656C2.02964 7.21423 2.26657 7.5518 2.50799 7.86909C2.7494 8.18651 2.9092 8.38992 2.98738 8.47929C3.06566 8.56882 3.12715 8.63575 3.17184 8.68045L3.33951 8.84135C3.4468 8.94866 3.60434 9.07717 3.81222 9.2269C4.02014 9.37672 4.25033 9.52421 4.5029 9.66961C4.75551 9.81478 5.04939 9.93324 5.3847 10.0249C5.71997 10.1166 6.04628 10.1534 6.3637 10.1356H7.13484C7.29124 10.1221 7.40972 10.0729 7.49026 9.98806L7.51694 9.95445C7.53488 9.92777 7.55167 9.88632 7.56717 9.83054C7.58286 9.77466 7.59066 9.71311 7.59066 9.64615C7.58608 9.45396 7.60071 9.28075 7.63416 9.12654C7.66758 8.97238 7.70567 8.85615 7.74827 8.77787C7.79085 8.69966 7.83891 8.63366 7.89239 8.58016C7.94598 8.52654 7.98417 8.49406 8.00658 8.48288C8.02884 8.47163 8.04662 8.464 8.06003 8.45942C8.16731 8.42367 8.29358 8.45829 8.439 8.56344C8.58431 8.66849 8.7206 8.7982 8.84808 8.95237C8.97549 9.10667 9.12858 9.27979 9.30735 9.47198C9.48625 9.66423 9.64266 9.80715 9.77672 9.90116L9.91078 9.98162C10.0003 10.0353 10.1165 10.0845 10.2596 10.1292C10.4024 10.1739 10.5276 10.185 10.635 10.1627L12.3516 10.1359C12.5213 10.1359 12.6534 10.1078 12.7471 10.052C12.841 9.99616 12.8968 9.9346 12.9148 9.86765C12.9328 9.80062 12.9337 9.72457 12.9182 9.63955C12.9023 9.55474 12.8867 9.49544 12.8711 9.46192Z" fill="white"/>
</g>
<defs>
<clipPath id="clip0_108_8667">
<rect width="12.8788" height="12.8788" fill="white" transform="translate(0.0605469 0.0605469)"/>
</clipPath>
</defs>
</svg>
