<svg width="13" height="13" viewBox="0 0 13 13" fill="none" xmlns="http://www.w3.org/2000/svg">
<g clip-path="url(#clip0_108_8661)">
<path d="M6.50155 0.0605469H6.49833C2.94781 0.0605469 0.0605469 2.94861 0.0605469 6.49994C0.0605469 7.90856 0.514524 9.21415 1.28645 10.2742L0.483937 12.6665L2.95908 11.8752C3.97731 12.5498 5.19194 12.9393 6.50155 12.9393C10.0521 12.9393 12.9393 10.0505 12.9393 6.49994C12.9393 2.94942 10.0521 0.0605469 6.50155 0.0605469ZM10.2485 9.15378C10.0931 9.59246 9.47655 9.95629 8.98474 10.0625C8.64828 10.1342 8.20879 10.1913 6.72934 9.57797C4.83697 8.79397 3.61831 6.87101 3.52333 6.74625C3.43237 6.62148 2.75865 5.72802 2.75865 4.80397C2.75865 3.87991 3.22792 3.42996 3.41708 3.23678C3.57243 3.07821 3.8292 3.00576 4.07551 3.00576C4.1552 3.00576 4.22683 3.00979 4.29123 3.01301C4.48039 3.02106 4.57537 3.03233 4.70013 3.33095C4.85548 3.70524 5.23379 4.6293 5.27887 4.72428C5.32475 4.81926 5.37063 4.94805 5.30624 5.07281C5.24587 5.2016 5.19274 5.25875 5.09776 5.36822C5.00278 5.47769 4.91263 5.5614 4.81765 5.67892C4.73072 5.78114 4.63252 5.89061 4.74199 6.07977C4.85146 6.2649 5.22977 6.88228 5.78678 7.37811C6.50558 8.01803 7.08834 8.22248 7.29682 8.30941C7.45217 8.37381 7.6373 8.35851 7.75079 8.23777C7.89487 8.08242 8.07276 7.82485 8.25387 7.5713C8.38266 7.38938 8.54525 7.36684 8.7159 7.43124C8.88976 7.49161 9.80979 7.94639 9.99895 8.04057C10.1881 8.13555 10.3129 8.18062 10.3587 8.26031C10.4038 8.34 10.4038 8.71429 10.2485 9.15378Z" fill="white"/>
</g>
<defs>
<clipPath id="clip0_108_8661">
<rect width="12.8788" height="12.8788" fill="white" transform="translate(0.0605469 0.0605469)"/>
</clipPath>
</defs>
</svg>
